<svg xmlns="http://www.w3.org/2000/svg" width="512" height="512" viewBox="0 0 512 512">
<g>
<path d="M 0.00 0.00 L 0.09 268.50 L 2.06 264.76 C5.68,257.91 6.95,257.56 29.95,257.00 L 50.50 256.50 L 51.00 139.00 C51.46,31.95 51.65,21.23 53.16,18.50 C55.36,14.54 59.82,10.38 63.32,9.06 C65.25,8.33 108.52,8.00 202.30,8.00 L 338.46 8.00 L 398.73 68.24 C431.88,101.37 459.67,129.90 460.50,131.64 C461.78,134.34 462.00,143.64 462.00,195.90 L 462.00 257.00 L 481.75 257.01 C497.51,257.01 502.09,257.32 504.43,258.54 C507.26,260.02 509.76,262.77 511.18,265.97 C511.55,266.81 511.89,207.31 511.93,133.75 L 512.00 0.00 L 512.00 439.54 L 509.40 443.36 C505.30,449.39 502.70,450.00 481.03,450.00 L 462.00 450.00 L 462.00 467.56 C462.00,477.52 461.50,487.10 460.84,489.70 C459.35,495.63 453.01,502.38 447.50,503.89 C442.00,505.40 71.16,505.45 65.72,503.94 C60.99,502.63 55.48,497.86 52.94,492.88 C51.22,489.50 51.00,486.91 51.00,469.54 L 51.00 450.00 L 31.97 450.00 C11.50,450.00 8.50,449.43 4.20,444.76 C2.93,443.39 1.51,440.97 1.03,439.38 C0.51,437.64 0.14,451.39 0.09,474.25 L 0.00 512.00 ZM 12.00 438.00 C13.99,439.99 15.33,440.00 256.07,440.00 C421.02,440.00 498.75,439.67 500.07,438.96 C501.95,437.95 502.00,435.95 502.00,353.66 C502.00,289.46 501.71,269.11 500.80,268.20 C499.87,267.27 444.10,267.00 255.84,267.00 C15.86,267.00 12.05,267.03 11.04,268.93 C10.35,270.22 10.00,298.43 10.00,353.43 C10.00,434.67 10.03,436.03 12.00,438.00 ZM 61.67 256.34 C62.04,256.70 149.90,256.89 256.92,256.75 L 451.50 256.50 L 452.02 139.00 L 399.98 139.00 L 398.22 139.00 C352.27,139.00 345.12,139.00 340.41,135.62 C339.48,134.95 338.64,134.15 337.62,133.20 C336.04,131.71 333.91,128.70 332.90,126.50 C331.17,122.77 331.04,118.97 331.02,70.25 L 331.00 18.00 L 66.85 18.00 L 61.00 23.85 L 61.00 139.76 C61.00,203.51 61.30,255.97 61.67,256.34 ZM 66.31 493.05 C69.44,494.96 73.10,494.99 256.30,495.00 C423.91,495.00 443.41,494.84 446.13,493.43 C451.17,490.82 452.00,487.18 452.00,467.53 L 452.00 450.00 L 61.00 450.00 L 61.00 468.57 C61.00,479.77 61.42,487.92 62.06,489.12 C62.65,490.21 64.56,491.98 66.31,493.05 ZM 341.00 122.20 L 347.80 129.00 L 395.40 129.00 C428.86,129.00 443.00,128.68 443.00,127.92 C443.00,126.67 343.07,26.00 341.83,26.00 C341.37,26.00 341.00,47.65 341.00,74.10 ZM 149.04 363.00 L 148.50 401.50 L 142.25 401.80 L 136.00 402.10 L 136.00 305.84 L 158.75 306.22 C184.30,306.65 185.77,306.98 193.49,314.10 C196.24,316.63 198.43,319.83 199.43,322.74 C201.29,328.22 201.47,337.70 199.81,343.24 C198.35,348.10 191.29,356.16 186.48,358.44 L 182.92 360.13 L 184.84 363.32 C189.76,371.46 205.00,399.83 205.00,400.85 C205.00,401.60 202.74,402.00 198.58,402.00 L 192.17 402.00 L 181.83 382.53 L 171.50 363.06 L 160.27 363.03 ZM 223.86 397.75 L 222.07 402.00 L 216.04 402.00 C212.72,402.00 210.00,401.61 210.00,401.13 C210.00,400.65 218.05,379.17 227.88,353.38 L 245.76 306.50 L 251.70 306.21 L 257.63 305.91 L 271.82 343.21 C279.62,363.72 287.76,385.00 289.90,390.50 C292.04,396.00 293.59,400.84 293.34,401.25 C292.57,402.52 282.32,402.10 281.25,400.75 C280.70,400.06 278.45,394.55 276.25,388.50 L 272.25 377.50 L 251.80 377.23 L 231.36 376.96 L 228.51 385.23 C226.94,389.78 224.85,395.41 223.86,397.75 ZM 356.94 401.37 C334.73,406.88 314.16,397.40 307.04,378.38 C304.02,370.30 303.00,364.14 303.02,354.11 C303.08,328.65 310.98,312.89 326.64,307.03 C334.41,304.13 349.72,304.17 357.62,307.13 C367.03,310.65 375.53,321.20 376.24,330.22 L 376.50 333.50 L 364.80 333.50 L 362.94 328.61 C359.37,319.20 352.95,315.06 341.86,315.02 C328.38,314.98 319.60,323.05 316.94,337.96 C316.20,342.11 315.91,349.63 316.20,357.19 C316.62,367.98 317.04,370.40 319.39,375.56 C324.04,385.73 330.95,391.26 340.61,392.54 C347.17,393.41 356.55,391.56 361.21,388.48 L 365.00 385.97 L 365.00 364.00 L 342.00 364.00 L 342.00 354.00 L 377.00 354.00 L 377.00 389.77 L 373.06 393.33 C368.03,397.88 365.04,399.36 356.94,401.37 ZM 322.80 209.80 C321.01,211.59 100.05,211.54 97.83,209.75 C95.44,207.82 95.01,205.44 96.63,203.11 L 98.11 201.00 L 209.86 201.00 C295.43,201.00 321.88,201.28 322.80,202.20 C324.35,203.75 324.35,208.25 322.80,209.80 ZM 294.30 175.08 C292.88,175.62 252.14,176.00 195.89,176.00 L 99.91 176.00 L 97.47 173.56 C95.55,171.64 95.21,170.62 95.88,168.81 L 96.73 166.50 L 196.33 166.25 C292.22,166.00 295.96,166.06 296.91,167.83 C298.35,170.52 297.09,174.02 294.30,175.08 ZM 269.17 138.35 C267.50,139.86 260.13,140.00 183.42,139.97 C128.28,139.95 98.90,139.59 97.75,138.92 C95.74,137.75 95.40,133.00 97.20,131.20 C98.11,130.29 118.56,130.00 183.13,130.00 C258.82,130.00 268.02,130.17 269.43,131.57 C271.52,133.66 271.42,136.31 269.17,138.35 ZM 149.00 315.81 L 149.00 352.00 L 161.68 352.00 C172.50,352.00 175.00,351.69 178.68,349.91 C185.11,346.80 187.42,342.92 187.83,334.50 C188.12,328.47 187.85,327.02 185.83,324.05 C181.50,317.67 178.21,316.54 162.75,316.15 ZM 176.78 103.44 C174.86,104.78 169.42,105.00 137.50,105.00 C105.58,105.00 100.14,104.78 98.22,103.44 C95.58,101.59 95.17,96.53 97.58,95.61 C98.45,95.27 116.59,95.00 137.88,95.00 C166.66,95.00 176.91,95.31 177.80,96.20 C179.71,98.11 179.20,101.75 176.78,103.44 ZM 236.56 363.75 L 235.87 366.00 L 252.04 366.00 C264.56,366.00 268.11,365.72 267.75,364.75 C267.49,364.06 264.00,354.50 259.98,343.50 L 259.52 342.24 C253.42,325.53 252.45,322.88 251.81,322.96 C251.67,322.98 251.55,323.11 251.40,323.27 C250.87,323.80 238.39,357.85 236.56,363.75 ZM 241.78 103.44 C239.96,104.72 236.30,104.99 221.53,104.94 C211.61,104.90 202.53,104.48 201.34,104.00 C198.63,102.91 197.55,99.71 198.98,97.04 C200.02,95.09 200.97,95.00 220.84,95.00 C235.65,95.00 241.94,95.34 242.80,96.20 C244.71,98.11 244.20,101.75 241.78,103.44 Z" fill="rgb(1,1,1)"/>
<path d="M 0.71 440.41 C0.81,439.36 0.92,439.00 1.03,439.38 C1.34,440.41 2.05,441.79 2.86,443.01 ZM 14.33 449.47 C18.14,449.91 23.59,450.00 31.97,450.00 C23.61,450.00 18.16,449.92 14.33,449.47 Z" fill="rgb(107,107,107)"/>
<path d="M 0.00 475.77 L 0.00 439.54 L 3.18 443.40 C8.20,449.49 10.43,450.00 31.97,450.00 L 51.00 450.00 L 51.00 469.54 C51.00,486.91 51.22,489.50 52.94,492.88 C55.48,497.86 60.99,502.63 65.72,503.94 C71.16,505.45 442.00,505.40 447.50,503.89 C453.01,502.38 459.35,495.63 460.84,489.70 C461.50,487.10 462.00,477.52 462.00,467.56 L 462.00 450.00 L 481.03 450.00 C502.70,450.00 505.30,449.39 509.40,443.36 L 512.00 439.54 L 512.00 475.77 L 512.00 512.00 L 256.00 512.00 L 0.00 512.00 L 0.00 475.77 ZM 66.31 493.05 C64.56,491.98 62.65,490.21 62.06,489.12 C61.42,487.92 61.00,479.77 61.00,468.57 L 61.00 450.00 L 256.50 450.00 L 452.00 450.00 L 452.00 467.53 C452.00,487.18 451.17,490.82 446.13,493.43 C443.41,494.84 423.91,495.00 256.30,495.00 C73.10,494.99 69.44,494.96 66.31,493.05 ZM 12.00 438.00 C10.03,436.03 10.00,434.67 10.00,353.43 C10.00,298.43 10.35,270.22 11.04,268.93 C12.05,267.03 15.86,267.00 255.84,267.00 C444.10,267.00 499.87,267.27 500.80,268.20 C501.71,269.11 502.00,289.46 502.00,353.66 C502.00,435.95 501.95,437.95 500.07,438.96 C498.75,439.67 421.02,440.00 256.07,440.00 C15.33,440.00 13.99,439.99 12.00,438.00 ZM 356.94 401.37 C365.04,399.36 368.03,397.88 373.06,393.33 L 377.00 389.77 L 377.00 371.88 L 377.00 354.00 L 359.50 354.00 L 342.00 354.00 L 342.00 359.00 L 342.00 364.00 L 353.50 364.00 L 365.00 364.00 L 365.00 374.99 L 365.00 385.97 L 361.21 388.48 C356.55,391.56 347.17,393.41 340.61,392.54 C330.95,391.26 324.04,385.73 319.39,375.56 C317.04,370.40 316.62,367.98 316.20,357.19 C315.91,349.63 316.20,342.11 316.94,337.96 C319.60,323.05 328.38,314.98 341.86,315.02 C352.95,315.06 359.37,319.20 362.94,328.61 L 364.80 333.50 L 370.65 333.50 L 376.50 333.50 L 376.24 330.22 C375.53,321.20 367.03,310.65 357.62,307.13 C349.72,304.17 334.41,304.13 326.64,307.03 C310.98,312.89 303.08,328.65 303.02,354.11 C303.00,364.14 304.02,370.30 307.04,378.38 C314.16,397.40 334.73,406.88 356.94,401.37 ZM 148.77 382.25 L 149.04 363.00 L 160.27 363.03 L 171.50 363.06 L 181.83 382.53 L 192.17 402.00 L 198.58 402.00 C202.74,402.00 205.00,401.60 205.00,400.85 C205.00,399.83 189.76,371.46 184.84,363.32 L 182.92 360.13 L 186.48 358.44 C191.29,356.16 198.35,348.10 199.81,343.24 C201.47,337.70 201.29,328.22 199.43,322.74 C198.43,319.83 196.24,316.63 193.49,314.10 C185.77,306.98 184.30,306.65 158.75,306.22 L 136.00 305.84 L 136.00 353.97 L 136.00 402.10 L 142.25 401.80 L 148.50 401.50 L 148.77 382.25 ZM 223.86 397.75 C224.85,395.41 226.94,389.78 228.51,385.23 L 231.36 376.96 L 251.80 377.23 L 272.25 377.50 L 276.25 388.50 C278.45,394.55 280.70,400.06 281.25,400.75 C282.32,402.10 292.57,402.52 293.34,401.25 C293.59,400.84 292.04,396.00 289.90,390.50 C287.76,385.00 279.62,363.72 271.82,343.21 L 257.63 305.91 L 251.70 306.21 L 245.76 306.50 L 227.88 353.38 C218.05,379.17 210.00,400.65 210.00,401.13 C210.00,401.61 212.72,402.00 216.04,402.00 L 222.07 402.00 L 223.86 397.75 ZM 0.04 134.25 L 0.00 0.00 L 256.00 0.00 L 512.00 0.00 L 511.93 133.75 C511.89,207.31 511.55,266.81 511.18,265.97 C509.76,262.77 507.26,260.02 504.43,258.54 C502.09,257.32 497.51,257.01 481.75,257.01 L 462.00 257.00 L 462.00 195.90 C462.00,143.64 461.78,134.34 460.50,131.64 C459.67,129.90 431.88,101.37 398.73,68.24 L 338.46 8.00 L 202.30 8.00 C108.52,8.00 65.25,8.33 63.32,9.06 C59.82,10.38 55.36,14.54 53.16,18.50 C51.65,21.23 51.46,31.95 51.00,139.00 L 50.50 256.50 L 29.95 257.00 C6.95,257.56 5.68,257.91 2.06,264.76 L 0.09 268.50 L 0.04 134.25 ZM 61.67 256.34 C61.30,255.97 61.00,203.51 61.00,139.76 L 61.00 23.85 L 63.92 20.92 L 66.85 18.00 L 198.92 18.00 L 331.00 18.00 L 331.02 70.25 C331.04,118.97 331.17,122.77 332.90,126.50 C333.91,128.70 336.04,131.71 337.62,133.20 C343.88,139.06 343.21,139.00 399.98,139.00 L 452.02 139.00 L 451.76 197.75 L 451.50 256.50 L 256.92 256.75 C149.90,256.89 62.04,256.70 61.67,256.34 ZM 322.80 209.80 C324.35,208.25 324.35,203.75 322.80,202.20 C321.88,201.28 295.43,201.00 209.86,201.00 L 98.11 201.00 L 96.63 203.11 C95.01,205.44 95.44,207.82 97.83,209.75 C100.05,211.54 321.01,211.59 322.80,209.80 ZM 294.30 175.08 C297.09,174.02 298.35,170.52 296.91,167.83 C295.96,166.06 292.22,166.00 196.33,166.25 L 96.73 166.50 L 95.88 168.81 C95.21,170.62 95.55,171.64 97.47,173.56 L 99.91 176.00 L 195.89 176.00 C252.14,176.00 292.88,175.62 294.30,175.08 ZM 269.17 138.35 C271.42,136.31 271.52,133.66 269.43,131.57 C268.02,130.17 258.82,130.00 183.13,130.00 C118.56,130.00 98.11,130.29 97.20,131.20 C95.40,133.00 95.74,137.75 97.75,138.92 C98.90,139.59 128.28,139.95 183.42,139.97 C260.13,140.00 267.50,139.86 269.17,138.35 ZM 176.78 103.44 C179.20,101.75 179.71,98.11 177.80,96.20 C176.91,95.31 166.66,95.00 137.88,95.00 C116.59,95.00 98.45,95.27 97.58,95.61 C95.17,96.53 95.58,101.59 98.22,103.44 C100.14,104.78 105.58,105.00 137.50,105.00 C169.42,105.00 174.86,104.78 176.78,103.44 ZM 241.78 103.44 C244.20,101.75 244.71,98.11 242.80,96.20 C241.94,95.34 235.65,95.00 220.84,95.00 C200.97,95.00 200.02,95.09 198.98,97.04 C197.55,99.71 198.63,102.91 201.34,104.00 C202.53,104.48 211.61,104.90 221.53,104.94 C236.30,104.99 239.96,104.72 241.78,103.44 ZM 344.40 125.60 L 341.00 122.20 L 341.00 74.10 C341.00,47.65 341.37,26.00 341.83,26.00 C343.07,26.00 443.00,126.67 443.00,127.92 C443.00,128.68 428.86,129.00 395.40,129.00 L 347.80 129.00 L 344.40 125.60 ZM 149.00 333.90 L 149.00 315.81 L 162.75 316.15 C178.21,316.54 181.50,317.67 185.83,324.05 C187.85,327.02 188.12,328.47 187.83,334.50 C187.42,342.92 185.11,346.80 178.68,349.91 C175.00,351.69 172.50,352.00 161.68,352.00 L 149.00 352.00 L 149.00 333.90 ZM 236.56 363.75 C238.39,357.85 250.87,323.80 251.40,323.27 C252.29,322.38 252.11,321.96 259.98,343.50 C264.00,354.50 267.49,364.06 267.75,364.75 C268.11,365.72 264.56,366.00 252.04,366.00 L 235.87 366.00 L 236.56 363.75 Z" fill="rgb(254,254,254)"/>
</g>
</svg>