<svg xmlns="http://www.w3.org/2000/svg" fill="none" viewBox="0 0 100 100"><g clip-path="url(#a)"><path fill="#4285F4" d="M49.98 84.233a7.885 7.885 0 1 0 0 15.77 7.885 7.885 0 0 0 0-15.77m0 11.691a3.862 3.862 0 1 1 3.862-3.808 3.807 3.807 0 0 1-3.863 3.808"/><path fill="#669DF6" fill-rule="evenodd" d="M90.362 58.935a4.13 4.13 0 0 1 2.521 1.433 4.075 4.075 0 0 1-.75 5.417L57.8 91.126a7.88 7.88 0 0 0-4.78-6.283l34.5-25.333a4.13 4.13 0 0 1 2.842-.575" clip-rule="evenodd"/><path fill="#AECBFA" fill-rule="evenodd" d="M42.175 91.008 7.938 65.733a3.966 3.966 0 0 1-.859-5.363 4.075 4.075 0 0 1 5.363-.858l34.5 25.333a7.89 7.89 0 0 0-4.767 6.163" clip-rule="evenodd"/><path fill="#AECBFA" d="M17.804 18.644a4.075 4.075 0 0 1-4.02-4.02V4.54a4.075 4.075 0 1 1 8.095 0v10.083a4.074 4.074 0 0 1-4.075 4.021m-.108 35.663a4.075 4.075 0 1 0 0-8.151 4.075 4.075 0 0 0 0 8.15m0-11.85a4.075 4.075 0 1 0 0-8.15 4.075 4.075 0 0 0 0 8.15m0-11.909a4.075 4.075 0 1 0 0-8.15 4.075 4.075 0 0 0 0 8.15"/><path fill="#4285F4" d="M82.159 30.447a4.075 4.075 0 0 1-4.021-4.079V16.285a4.02 4.02 0 1 1 8.041 0v10.083a4.016 4.016 0 0 1-4.02 4.08m.104 23.917a4.077 4.077 0 0 0 3.764-5.635 4.075 4.075 0 1 0-3.764 5.635m0-12.067a4.075 4.075 0 1 0 0-8.15 4.075 4.075 0 0 0 0 8.15m0-33.679a4.075 4.075 0 1 0 0-8.15 4.075 4.075 0 0 0 0 8.15"/><path fill="#669DF6" d="M49.98 66.321a4.075 4.075 0 0 1-4.022-4.02V52.055a4.075 4.075 0 0 1 8.096 0v10.137a4.064 4.064 0 0 1-4.075 4.13m0 11.855a4.075 4.075 0 1 0 0-8.15 4.075 4.075 0 0 0 0 8.15m0-33.842a4.075 4.075 0 1 0-.001-8.15 4.075 4.075 0 0 0 0 8.15m0-11.904a4.075 4.075 0 1 0 0-8.15 4.075 4.075 0 0 0 0 8.15"/><path fill="#4285F4" d="M66.067 42.404a4.075 4.075 0 0 1-4.021-4.02V28.3a4.07 4.07 0 0 1 7.092-3.179 4.08 4.08 0 0 1 1.004 3.18v10.083a4.075 4.075 0 0 1-4.075 4.02m.054-21.933a4.077 4.077 0 0 0 3.765-5.634 4.073 4.073 0 0 0-6.646-1.322 4.075 4.075 0 0 0 2.881 6.956m0 45.583a4.075 4.075 0 1 0 0-8.15 4.075 4.075 0 0 0 0 8.15m0-11.904a4.075 4.075 0 1 0 0-8.15 4.075 4.075 0 0 0 0 8.15"/><path fill="#AECBFA" d="M33.837 66.054a4.075 4.075 0 1 0 0-8.15 4.075 4.075 0 0 0 0 8.15m0-33.625a4.075 4.075 0 1 0 0-8.15 4.075 4.075 0 0 0 0 8.15m0-11.958a4.077 4.077 0 1 0 0-8.155 4.077 4.077 0 0 0 0 8.155m.054 33.68a4.075 4.075 0 0 1-4.074-3.917V40.046a4.02 4.02 0 1 1 8.041 0v10.188a4.025 4.025 0 0 1-3.966 3.916"/></g><defs><clipPath id="a"><path fill="#fff" d="M0 0h100v100H0z"/></clipPath></defs></svg>