<svg xmlns="http://www.w3.org/2000/svg" fill="none" viewBox="0 0 100 100"><path fill="#000" d="M70.894 16.632c11.461 0 20.752 9.33 20.752 20.842v6.947l6.041 12.068a4.21 4.21 0 0 1-.007 3.785L91.646 72.21v6.948c0 11.511-9.29 20.842-20.752 20.842H29.39c-11.46 0-20.752-9.331-20.752-20.842V72.21L2.472 60.311a4.21 4.21 0 0 1-.008-3.86l6.174-12.03v-6.947c0-11.511 9.291-20.842 20.752-20.842zM34.353 40a9.474 9.474 0 0 0-9.474 9.474v16.842a9.474 9.474 0 1 0 18.947 0V49.474A9.474 9.474 0 0 0 34.353 40m30.526 0a9.474 9.474 0 0 0-9.474 9.474v16.842a9.474 9.474 0 1 0 18.948 0V49.474A9.474 9.474 0 0 0 64.879 40"/><path fill="#000" d="M50.142 23.158c6.395 0 11.579-5.184 11.579-11.58C61.72 5.185 56.537 0 50.14 0c-6.394 0-11.578 5.184-11.578 11.579s5.184 11.579 11.579 11.579"/></svg>